<?xml version="1.0" encoding="UTF-8"?>
<svg id="Layer_2" data-name="Layer 2" xmlns="http://www.w3.org/2000/svg" viewBox="0 0 135 135">
  <defs>
    <style>
      .cls-1, .cls-2 {
        fill: #010201;
      }

      .cls-3 {
        fill: #fff;
      }

      .cls-3, .cls-2 {
        fill-rule: evenodd;
      }
    </style>
  </defs>
  <g id="ELEMENTS">
    <g>
      <circle class="cls-1" cx="67.5" cy="67.5" r="67.5"/>
      <g id="logo">
        <path id="bubble" class="cls-3" d="m67.5,17.5c-28.73,0-51,21.04-51,49.47,0,14.87,6.09,27.72,16.02,36.59.83.75,1.34,1.79,1.37,2.91l.28,9.07c.09,2.89,3.08,4.78,5.73,3.61l10.12-4.47c.86-.38,1.82-.45,2.72-.2,4.65,1.28,9.6,1.96,14.76,1.96,28.73,0,51-21.04,51-49.47s-22.27-49.47-51-49.47Z"/>
        <path id="bolt" class="cls-2" d="m36.87,81.44l14.98-23.77c2.38-3.78,7.49-4.72,11.06-2.04l11.92,8.94c1.09.82,2.6.82,3.69-.01l16.09-12.21c2.15-1.63,4.95.94,3.51,3.22l-14.98,23.77c-2.38,3.78-7.49,4.72-11.06,2.04l-11.92-8.94c-1.09-.82-2.6-.82-3.69.01l-16.09,12.21c-2.15,1.63-4.95-.94-3.51-3.22Z"/>
      </g>
    </g>
  </g>
</svg>