<?xml version="1.0" encoding="UTF-8"?>
<svg id="Layer_2" data-name="Layer 2" xmlns="http://www.w3.org/2000/svg" viewBox="0 0 241.14 241.14">
  <defs>
    <style>
      .cls-1 {
        fill: #010201;
      }

      .cls-2 {
        fill: #fff;
      }
    </style>
  </defs>
  <g id="ELEMENTS">
    <g>
      <circle class="cls-1" cx="120.57" cy="120.57" r="120.57"/>
      <g>
        <g>
          <path class="cls-2" d="m125.29,92.88c-.58,0-1.15.02-1.72.07l1.52,5.41c.07,0,.13,0,.2,0,7.98,0,14.47,6.41,14.6,14.36l5.43,1.68c.03-.47.05-.95.05-1.43,0-11.07-9.01-20.08-20.08-20.08Z"/>
          <path class="cls-2" d="m125.29,81.32c-1.66,0-3.29.13-4.88.38l1.49,5.32c1.11-.14,2.24-.22,3.39-.22,14.45,0,26.17,11.72,26.17,26.17,0,1.1-.07,2.19-.2,3.26l5.3,1.64c.25-1.6.38-3.23.38-4.9,0-17.45-14.2-31.65-31.65-31.65Z"/>
          <path class="cls-2" d="m155.29,82.05c-8.91-8.91-20.75-13.82-33.35-13.82-1.76,0-3.51.1-5.24.29l1.51,5.36c1.23-.11,2.47-.16,3.73-.16,23.02,0,41.69,18.67,41.69,41.69,0,1.55-.09,3.07-.25,4.57l5.32,1.64c.27-2.04.4-4.12.4-6.22,0-12.6-4.91-24.44-13.82-33.35Z"/>
        </g>
        <path class="cls-2" d="m205.19,76.37c-3.39-7.98-8.23-15.15-14.39-21.31s-13.33-11-21.31-14.39c-4.92-2.09-10.01-3.57-15.23-4.42-.12-.02-.25-.04-.37-.06-3.45-.55-6.95-.82-10.49-.82h-45.64c-9.03,0-17.8,1.78-26.09,5.3-7.98,3.39-15.15,8.23-21.31,14.39-6.16,6.16-11,13.33-14.39,21.31-3.52,8.29-5.3,17.06-5.3,26.09v30.73c0,13.67,4.13,26.85,11.93,38.1,6.2,8.93,14.34,16.16,23.81,21.18,1.94,1.03,3.93,1.97,5.97,2.81v.11c.49.21.99.42,1.49.62l-.28,22.06v.08s0,.08,0,.08c.03,3.16,1.83,5.89,4.45,7.27.69.19,1.41.29,2.16.29,2.33,0,4.57-1,6.14-2.74l20.5-22.74h36.57c9.03,0,17.8-1.78,26.09-5.3,7.98-3.39,15.15-8.23,21.31-14.39s11-13.33,14.39-21.31c3.52-8.29,5.3-17.06,5.3-26.09v-30.73c0-9.03-1.78-17.8-5.3-26.09Zm-125.01,142.41c-.66,0-1.3-.51-1.3-1.29l.43-19.78.31-14.14v-.15c-.5-.18-.99-.37-1.48-.57-1.72-.68-3.39-1.45-5.02-2.31-.14-.07-.29-.15-.43-.23-16.83-9.02-28.35-26.79-28.35-47.12v-30.73c0-29.37,24.03-53.4,53.4-53.4h45.64c2.86,0,5.68.23,8.42.67,25.41,4.07,44.98,26.23,44.98,52.74v30.73c0,29.37-24.03,53.4-53.4,53.4h-33.65l-12.34,13.69-16.28,18.06c-.13.15-.29.26-.45.33-.16.07-.33.1-.5.1Z"/>
        <path class="cls-2" d="m142.48,134.45c-5.13-.4-9.05,3.27-11.15,8.03-1.37-.03-31.08-1.09-34.85-34.66,4.86-1.97,8.7-5.81,8.43-10.99-.3-5.78-9.39-22.82-18.26-22.82s-16.43,9.31-16.43,17.04c0,.56.07,1.14.18,1.73-.11.06-.18.1-.18.1,0,0,5.8,47.52,70.9,74.86.92.39,2.8.88,3.82,1.14.23.07.47.13.7.18.59.13,1.17.2,1.73.22,4.52.12,9.65-2.46,13.17-6.32,2.51-2.74,4.2-6.13,4.29-9.67.23-8.87-16.58-18.39-22.35-18.84Z"/>
      </g>
    </g>
  </g>
</svg>