<?xml version="1.0" encoding="UTF-8"?>
<svg id="Layer_2" data-name="Layer 2" xmlns="http://www.w3.org/2000/svg" viewBox="0 0 35.29 35.38">
  <defs>
    <style>
      .cls-1 {
        fill-rule: evenodd;
      }
    </style>
  </defs>
  <g id="ELEMENTS">
    <g>
      <path d="m0,35.38l2.54-9.46c-1.44-2.59-2.19-5.49-2.19-8.44C.34,7.84,8.18,0,17.82,0s17.48,7.84,17.48,17.48-7.84,17.48-17.48,17.48c-2.89,0-5.75-.73-8.31-2.12l-9.51,2.55Zm9.99-6.1l.6.36c2.2,1.31,4.7,2,7.23,2,7.81,0,14.17-6.36,14.17-14.17S25.63,3.3,17.82,3.3,3.65,9.66,3.65,17.48c0,2.58.72,5.12,2.07,7.35l.37.6-1.42,5.28,5.31-1.42Z"/>
      <path class="cls-1" d="m24.32,19.91c-.72-.43-1.66-.91-2.5-.56-.65.27-1.07,1.28-1.49,1.8-.22.27-.47.31-.81.17-2.44-.97-4.31-2.6-5.66-4.85-.23-.35-.19-.62.09-.95.41-.48.92-1.02,1.03-1.67.11-.65-.19-1.4-.46-1.97-.34-.73-.72-1.78-1.46-2.2-.68-.38-1.57-.17-2.17.32-1.04.85-1.54,2.17-1.53,3.49,0,.37.05.75.14,1.11.21.87.61,1.68,1.06,2.45.34.58.71,1.14,1.11,1.69,1.31,1.77,2.93,3.31,4.81,4.47.94.58,1.95,1.08,3,1.43,1.17.39,2.22.79,3.49.55,1.33-.25,2.64-1.07,3.17-2.35.16-.38.23-.8.15-1.2-.18-.83-1.3-1.32-1.97-1.72Z"/>
    </g>
  </g>
</svg>